<svg width="7" height="7" viewBox="0 0 7 7" fill="none" xmlns="http://www.w3.org/2000/svg">
<path fill-rule="evenodd" clip-rule="evenodd" d="M3.44998 0.699951C2.67573 0.699951 2.5793 0.703276 2.27483 0.717526C1.23933 0.765026 0.664576 1.3393 0.617076 2.3748C0.603301 2.67928 0.599976 2.77618 0.599976 3.54995C0.599976 4.3242 0.603301 4.4211 0.617076 4.7251C0.664576 5.76013 1.23933 6.33535 2.27483 6.38285C2.5793 6.39663 2.67573 6.39995 3.44998 6.39995C4.22423 6.39995 4.32113 6.39663 4.6256 6.38285C5.6592 6.33535 6.23633 5.76108 6.28288 4.7251C6.29665 4.4211 6.29998 4.3242 6.29998 3.54995C6.29998 2.77618 6.29665 2.67928 6.28288 2.3748C6.23633 1.34073 5.6611 0.764551 4.6256 0.717526C4.32113 0.703276 4.22423 0.699951 3.44998 0.699951ZM3.45 1.21391C4.21095 1.21391 4.3012 1.21676 4.60188 1.23054C5.3747 1.26569 5.73475 1.63191 5.77038 2.39856C5.78368 2.69924 5.78653 2.78901 5.78653 3.54996C5.78653 4.31091 5.78368 4.40116 5.77038 4.70136C5.73475 5.46754 5.37518 5.83471 4.60188 5.86986C4.3012 5.88316 4.21143 5.88649 3.45 5.88649C2.68905 5.88649 2.5988 5.88364 2.2986 5.86986C1.52435 5.83424 1.16573 5.46659 1.1301 4.70136C1.1168 4.40116 1.11348 4.31091 1.11348 3.54996C1.11348 2.78901 1.1168 2.69876 1.1301 2.39856C1.16525 1.63144 1.5253 1.26521 2.2986 1.23006C2.5988 1.21629 2.68905 1.21391 3.45 1.21391ZM1.98654 3.54996C1.98654 2.74151 2.64204 2.08649 3.45001 2.08649C4.25799 2.08649 4.91349 2.74199 4.91349 3.54996C4.91349 4.35841 4.25799 5.01344 3.45001 5.01344C2.64204 5.01344 1.98654 4.35841 1.98654 3.54996ZM3.44999 4.49999C2.92512 4.49999 2.49999 4.07487 2.49999 3.54999C2.49999 3.02559 2.92512 2.59999 3.44999 2.59999C3.97439 2.59999 4.40047 3.02512 4.40047 3.54999C4.40047 4.07487 3.97439 4.49999 3.44999 4.49999ZM4.62895 2.02901C4.62895 1.83996 4.78237 1.68701 4.97095 1.68701C5.16047 1.68701 5.31342 1.83996 5.31342 2.02901C5.31342 2.21806 5.16 2.37101 4.97095 2.37101C4.7819 2.37101 4.62895 2.21759 4.62895 2.02901Z" fill="black"/>
</svg>
