<svg width="13" height="16" viewBox="0 0 13 16" fill="none" xmlns="http://www.w3.org/2000/svg">
<path d="M7.42857 0H9.26714C9.40086 0.715 9.76857 1.617 10.4139 2.512C11.0454 3.389 11.8829 4 13 4V6C11.3722 6 10.1493 5.186 9.28572 4.171V11C9.28572 11.9889 9.01342 12.9556 8.50325 13.7778C7.99309 14.6001 7.26797 15.241 6.4196 15.6194C5.57123 15.9978 4.63771 16.0969 3.73708 15.9039C2.83646 15.711 2.00918 15.2348 1.35986 14.5355C0.710548 13.8363 0.268359 12.9454 0.0892133 11.9755C-0.0899324 11.0055 0.00201167 10.0002 0.353419 9.08658C0.704825 8.17295 1.29991 7.39206 2.06343 6.84265C2.82694 6.29324 3.72459 6 4.64286 6V8C4.0919 8 3.55331 8.17595 3.0952 8.50559C2.63709 8.83523 2.28004 9.30377 2.06919 9.85195C1.85835 10.4001 1.80318 11.0033 1.91067 11.5853C2.01816 12.1672 2.28347 12.7018 2.67306 13.1213C3.06265 13.5409 3.55902 13.8266 4.09939 13.9424C4.63977 14.0581 5.19988 13.9987 5.70891 13.7716C6.21793 13.5446 6.653 13.1601 6.9591 12.6667C7.26519 12.1734 7.42857 11.5933 7.42857 11V0Z" fill="black"/>
</svg>
