<svg width="7" height="6" viewBox="0 0 7 6" fill="none" xmlns="http://www.w3.org/2000/svg">
<path d="M6.35002 0.961101C6.14055 1.0542 5.91492 1.1169 5.67837 1.1454C5.92015 1.00053 6.10492 0.771576 6.1928 0.498451C5.9667 0.632401 5.71637 0.729776 5.4499 0.782026C5.2371 0.554501 4.93262 0.412476 4.5968 0.412476C3.84155 0.412476 3.28675 1.1169 3.45727 1.8484C2.4859 1.79948 1.62377 1.33398 1.04712 0.626701C0.740749 1.15205 0.888474 1.83985 1.40907 2.18803C1.21765 2.18185 1.03762 2.12913 0.879924 2.04173C0.867099 2.58323 1.25565 3.09005 1.81805 3.2031C1.6537 3.24775 1.4732 3.2582 1.28985 3.22305C1.43852 3.6876 1.87125 4.02533 2.38235 4.03483C1.88977 4.42053 1.27085 4.59295 0.650024 4.5198C1.16777 4.85183 1.78195 5.04515 2.4422 5.04515C4.6139 5.04515 5.84035 3.21118 5.76625 1.56625C5.9952 1.4019 6.19327 1.19575 6.35002 0.961101Z" fill="black"/>
</svg>
