{
  "asset": {
    "generator": "Khronos glTF Blender I/O v4.1.63",
    "version": "2.0"
  },
  "scene": 0,
  "scenes": [
    {
      "name": "Scene",
      "nodes": [
        0,
        2,
        6,
        8
      ]
    }
  ],
  "nodes": [
    {
      "mesh": 0,
      "name": "Sphere",
      "rotation": [
        0,
        0.00004190696563455276,
        0,
        1
      ],
      "scale": [
        2.775938034057617,
        2.775938034057617,
        2.775938034057617
      ]
    },
    {
      "mesh": 1,
      "name": "logo",
      "rotation": [
        0.49379080533981323,
        0.5061331391334534,
        -0.5061330199241638,
        0.4937908351421356
      ],
      "scale": [
        0.4919265806674957,
        0.4919265806674957,
        0.49192649126052856
      ],
      "translation": [
        0.9999576210975647,
        0.002618372207507491,
        -0.023316750302910805
      ]
    },
    {
      "children": [
        1
      ],
      "name": "BézierCircle",
      "scale": [
        3.8895866870880127,
        3.8895866870880127,
        3.8895866870880127
      ]
    },
    {
      "name": "satelite_0",
      "translation": [
        0,
        -0.000003814697265625,
        0
      ]
    },
    {
      "children": [
        3
      ],
      "name": "GLTF_SceneRootNode",
      "rotation": [
        0.70710688829422,
        0,
        0,
        0.7071066498756409
      ]
    },
    {
      "children": [
        4
      ],
      "name": "root"
    },
    {
      "children": [
        5
      ],
      "name": "Sketchfab_model",
      "rotation": [
        -0.5,
        0.5,
        -0.5,
        0.5
      ],
      "scale": [
        0.09192806482315063,
        0.09192806482315063,
        0.09192806482315063
      ],
      "translation": [
        -3.8208115100860596,
        0,
        0
      ]
    },
    {
      "mesh": 2,
      "name": "Object_4",
      "rotation": [
        0,
        0,
        -0.7071068286895752,
        0.7071067094802856
      ],
      "scale": [
        0.01432873960584402,
        0.014328740537166595,
        0.014328738674521446
      ],
      "translation": [
        -0.9999999403953552,
        0,
        0
      ]
    },
    {
      "children": [
        7
      ],
      "name": "BézierCircle.001",
      "scale": [
        3.8818514347076416,
        3.8818514347076416,
        3.8818514347076416
      ]
    }
  ],
  "materials": [
    {
      "doubleSided": true,
      "name": "Material.001",
      "pbrMetallicRoughness": {
        "baseColorTexture": {
          "index": 0
        },
        "metallicFactor": 0,
        "roughnessFactor": 0.5
      }
    },
    {
      "alphaMode": "BLEND",
      "doubleSided": true,
      "name": "logo",
      "pbrMetallicRoughness": {
        "baseColorTexture": {
          "index": 1
        },
        "metallicFactor": 0,
        "roughnessFactor": 0.5
      }
    },
    {
      "doubleSided": true,
      "name": "Material.002",
      "pbrMetallicRoughness": {
        "baseColorTexture": {
          "index": 2
        },
        "metallicFactor": 0.5,
        "roughnessFactor": 0.30000001192092896
      }
    }
  ],
  "meshes": [
    {
      "name": "Sphere",
      "primitives": [
        {
          "attributes": {
            "POSITION": 0,
            "NORMAL": 1,
            "TEXCOORD_0": 2
          },
          "indices": 3,
          "material": 0
        }
      ]
    },
    {
      "name": "logo",
      "primitives": [
        {
          "attributes": {
            "POSITION": 4,
            "NORMAL": 5,
            "TEXCOORD_0": 6
          },
          "indices": 7,
          "material": 1
        }
      ]
    },
    {
      "name": "Object_0",
      "primitives": [
        {
          "attributes": {
            "POSITION": 8,
            "NORMAL": 9,
            "TEXCOORD_0": 10
          },
          "indices": 11,
          "material": 2
        }
      ]
    }
  ],
  "textures": [
    {
      "sampler": 0,
      "source": 0
    },
    {
      "sampler": 1,
      "source": 1
    },
    {
      "sampler": 0,
      "source": 2
    }
  ],
  "images": [
    {
      "name": "Maps World - Isometric + Front _ Free Behance & More",
      "uri": "earthtraxy2_img0.png"
    },
    {
      "name": "logo",
      "uri": "earthtraxy2_img1.png"
    },
    {
      "name": "Material_baseColor",
      "uri": "earthtraxy2_img2.png"
    }
  ],
  "accessors": [
    {
      "bufferView": 0,
      "componentType": 5126,
      "count": 559,
      "max": [
        0.9999997019767761,
        1,
        0.9999993443489075
      ],
      "min": [
        -0.9999990463256836,
        -1,
        -1
      ],
      "type": "VEC3"
    },
    {
      "bufferView": 1,
      "componentType": 5126,
      "count": 559,
      "type": "VEC3"
    },
    {
      "bufferView": 2,
      "componentType": 5126,
      "count": 559,
      "type": "VEC2"
    },
    {
      "bufferView": 3,
      "componentType": 5123,
      "count": 2880,
      "type": "SCALAR"
    },
    {
      "bufferView": 4,
      "componentType": 5126,
      "count": 4,
      "max": [
        0.45876288414001465,
        0,
        0.5
      ],
      "min": [
        -0.45876288414001465,
        0,
        -0.5
      ],
      "type": "VEC3"
    },
    {
      "bufferView": 5,
      "componentType": 5126,
      "count": 4,
      "type": "VEC3"
    },
    {
      "bufferView": 6,
      "componentType": 5126,
      "count": 4,
      "type": "VEC2"
    },
    {
      "bufferView": 7,
      "componentType": 5123,
      "count": 6,
      "type": "SCALAR"
    },
    {
      "bufferView": 8,
      "componentType": 5126,
      "count": 512,
      "max": [
        4.172609329223633,
        1.4648957252502441,
        13.67340087890625
      ],
      "min": [
        -4.165558338165283,
        -1.4648957252502441,
        -13.66386890411377
      ],
      "type": "VEC3"
    },
    {
      "bufferView": 9,
      "componentType": 5126,
      "count": 512,
      "type": "VEC3"
    },
    {
      "bufferView": 10,
      "componentType": 5126,
      "count": 512,
      "type": "VEC2"
    },
    {
      "bufferView": 11,
      "componentType": 5123,
      "count": 768,
      "type": "SCALAR"
    }
  ],
  "bufferViews": [
    {
      "buffer": 0,
      "byteLength": 6708,
      "byteOffset": 0,
      "target": 34962
    },
    {
      "buffer": 0,
      "byteLength": 6708,
      "byteOffset": 6708,
      "target": 34962
    },
    {
      "buffer": 0,
      "byteLength": 4472,
      "byteOffset": 13416,
      "target": 34962
    },
    {
      "buffer": 0,
      "byteLength": 5760,
      "byteOffset": 17888,
      "target": 34963
    },
    {
      "buffer": 0,
      "byteLength": 48,
      "byteOffset": 23648,
      "target": 34962
    },
    {
      "buffer": 0,
      "byteLength": 48,
      "byteOffset": 23696,
      "target": 34962
    },
    {
      "buffer": 0,
      "byteLength": 32,
      "byteOffset": 23744,
      "target": 34962
    },
    {
      "buffer": 0,
      "byteLength": 12,
      "byteOffset": 23776,
      "target": 34963
    },
    {
      "buffer": 0,
      "byteLength": 6144,
      "byteOffset": 23788,
      "target": 34962
    },
    {
      "buffer": 0,
      "byteLength": 6144,
      "byteOffset": 29932,
      "target": 34962
    },
    {
      "buffer": 0,
      "byteLength": 4096,
      "byteOffset": 36076,
      "target": 34962
    },
    {
      "buffer": 0,
      "byteLength": 1536,
      "byteOffset": 40172,
      "target": 34963
    }
  ],
  "samplers": [
    {
      "magFilter": 9729,
      "minFilter": 9987
    },
    {
      "magFilter": 9729,
      "minFilter": 9987,
      "wrapS": 33071,
      "wrapT": 33071
    }
  ],
  "buffers": [
    {
      "uri": "earth.bin",
      "byteLength": 41708
    }
  ]
}