{
	"asset":{
		"generator":"Khronos glTF Blender I/O v4.1.63",
		"version":"2.0"
	},
	"extensionsUsed":[
		"KHR_materials_specular"
	],
	"scene":0,
	"scenes":[
		{
			"name":"Scene",
			"nodes":[
				0,
				4,
				5,
				6,
				8,
				11,
				12,
				13
			]
		}
	],
	"nodes":[
		{
			"name":"B\u00e9zierCircle",
			"scale":[
				3.8895866870880127,
				3.8895866870880127,
				3.8895866870880127
			],
			"translation":[
				0,
				0,
				-5.724440574645996
			]
		},
		{
			"name":"satelite_0",
			"translation":[
				0,
				-3.6059409467270598e-06,
				4.961982085660566e-06
			]
		},
		{
			"children":[
				1
			],
			"name":"GLTF_SceneRootNode",
			"rotation":[
				0.70710688829422,
				0,
				0,
				0.7071066498756409
			],
			"translation":[
				0,
				-3.814697265625e-06,
				0
			]
		},
		{
			"children":[
				2
			],
			"name":"root",
			"translation":[
				0,
				-3.814697265625e-06,
				0
			]
		},
		{
			"children":[
				3
			],
			"name":"Sketchfab_model",
			"rotation":[
				-0.5,
				0.5,
				-0.5,
				0.5
			],
			"scale":[
				0.09192806482315063,
				0.09192806482315063,
				0.09192806482315063
			],
			"translation":[
				-3.8208115100860596,
				0,
				-5.724440574645996
			]
		},
		{
			"name":"B\u00e9zierCircle.001",
			"scale":[
				3.8818514347076416,
				3.8818514347076416,
				3.8818514347076416
			],
			"translation":[
				0,
				0,
				-5.724440574645996
			]
		},
		{
			"mesh":0,
			"name":"Object_4",
			"rotation":[
				-0.2398078888654709,
				0.2398078888654709,
				-0.6652008891105652,
				0.6652008295059204
			],
			"scale":[
				0.030904700979590416,
				0.030904702842235565,
				0.030904699116945267
			],
			"translation":[
				-0.9048902988433838,
				0,
				0.6982356309890747
			]
		},
		{
			"name":"5f6fc745fefb4102b3fcdca6cbc9bfe8.obj.cleaner.materialmerger.gle"
		},
		{
			"children":[
				7
			],
			"name":"Sketchfab_model.001",
			"rotation":[
				-0.6702916026115417,
				0,
				0,
				0.742097795009613
			],
			"scale":[
				0.14883382618427277,
				0.0675543025135994,
				0.1482185274362564
			],
			"translation":[
				0,
				0,
				-1.0664844512939453
			]
		},
		{
			"mesh":1,
			"name":"Object_2"
		},
		{
			"children":[
				9
			],
			"name":"5f6fc745fefb4102b3fcdca6cbc9bfe8.obj.cleaner.materialmerger"
		},
		{
			"children":[
				10
			],
			"name":"Sketchfab_model.002",
			"rotation":[
				-0.6882191300392151,
				0.1623406708240509,
				0.1623407006263733,
				0.6882190108299255
			],
			"scale":[
				0.16055427491664886,
				0.0607759989798069,
				0.16055426001548767
			],
			"translation":[
				-0.3904367685317993,
				-0.045576270669698715,
				-0.9735092520713806
			]
		},
		{
			"mesh":2,
			"name":"pSphere4",
			"rotation":[
				0.7071068286895752,
				0,
				0,
				0.7071068286895752
			],
			"scale":[
				0.9746437668800354,
				0.9746437668800354,
				0.9746437668800354
			]
		},
		{
			"mesh":3,
			"name":"logo",
			"rotation":[
				0.5676080584526062,
				0.4072508215904236,
				-0.3821178376674652,
				0.604941189289093
			],
			"translation":[
				1.0283223390579224,
				0,
				0.31523579359054565
			]
		}
	],
	"materials":[
		{
			"doubleSided":true,
			"name":"Material.002",
			"pbrMetallicRoughness":{
				"baseColorTexture":{
					"index":0
				},
				"metallicFactor":0.5,
				"roughnessFactor":0.30000001192092896
			}
		},
		{
			"doubleSided":true,
			"name":"None.001",
			"pbrMetallicRoughness":{
				"baseColorFactor":[
					1,
					0.024031858891248703,
					0.06307076662778854,
					1
				],
				"metallicFactor":0,
				"roughnessFactor":0.3300394117832184
			}
		},
		{
			"alphaMode":"BLEND",
			"doubleSided":true,
			"extensions":{
				"KHR_materials_specular":{
					"specularTexture":{
						"index":1
					}
				}
			},
			"name":"lambert6",
			"pbrMetallicRoughness":{
				"baseColorTexture":{
					"index":2
				},
				"metallicFactor":0.5,
				"roughnessFactor":0.5527864098548889
			}
		},
		{
			"alphaMode":"BLEND",
			"doubleSided":true,
			"name":"logo",
			"pbrMetallicRoughness":{
				"baseColorTexture":{
					"index":3
				},
				"metallicFactor":0,
				"roughnessFactor":0.5
			}
		}
	],
	"meshes":[
		{
			"name":"Object_0",
			"primitives":[
				{
					"attributes":{
						"POSITION":0,
						"NORMAL":1,
						"TEXCOORD_0":2
					},
					"indices":3,
					"material":0
				}
			]
		},
		{
			"name":"Object_0.004",
			"primitives":[
				{
					"attributes":{
						"POSITION":4,
						"NORMAL":5,
						"TEXCOORD_0":6
					},
					"indices":7,
					"material":1
				}
			]
		},
		{
			"name":"Mesh.001",
			"primitives":[
				{
					"attributes":{
						"POSITION":8,
						"NORMAL":9,
						"TEXCOORD_0":10
					},
					"indices":11,
					"material":2
				}
			]
		},
		{
			"name":"logo.001",
			"primitives":[
				{
					"attributes":{
						"POSITION":12,
						"NORMAL":13,
						"TEXCOORD_0":14
					},
					"indices":15,
					"material":3
				}
			]
		}
	],
	"textures":[
		{
			"sampler":0,
			"source":0
		},
		{
			"sampler":0,
			"source":1
		},
		{
			"sampler":0,
			"source":2
		},
		{
			"sampler":1,
			"source":3
		}
	],
	"images":[
		{
			"mimeType":"image/png",
			"name":"Material_baseColor",
			"uri":"Material_baseColor.png"
		},
		{
			"mimeType":"image/png",
			"name":"file6",
			"uri":"file6.png"
		},
		{
			"mimeType":"image/png",
			"name":"8k_earth_daymap",
			"uri":"8k_earth_daymap.png"
		},
		{
			"mimeType":"image/png",
			"name":"logo",
			"uri":"logo.png"
		}
	],
	"accessors":[
		{
			"bufferView":0,
			"componentType":5126,
			"count":512,
			"max":[
				4.172609329223633,
				1.4648957252502441,
				13.67340087890625
			],
			"min":[
				-4.165558338165283,
				-1.4648957252502441,
				-13.66386890411377
			],
			"type":"VEC3"
		},
		{
			"bufferView":1,
			"componentType":5126,
			"count":512,
			"type":"VEC3"
		},
		{
			"bufferView":2,
			"componentType":5126,
			"count":512,
			"type":"VEC2"
		},
		{
			"bufferView":3,
			"componentType":5123,
			"count":768,
			"type":"SCALAR"
		},
		{
			"bufferView":4,
			"componentType":5126,
			"count":2244,
			"max":[
				1.4687039852142334,
				0.26839399337768555,
				2.554105043411255
			],
			"min":[
				-1.4687039852142334,
				-0.2683910131454468,
				-1.9697489738464355
			],
			"type":"VEC3"
		},
		{
			"bufferView":5,
			"componentType":5126,
			"count":2244,
			"type":"VEC3"
		},
		{
			"bufferView":6,
			"componentType":5126,
			"count":2244,
			"type":"VEC2"
		},
		{
			"bufferView":7,
			"componentType":5123,
			"count":13464,
			"type":"SCALAR"
		},
		{
			"bufferView":8,
			"componentType":5126,
			"count":201538,
			"max":[
				0.9797280430793762,
				0.979728102684021,
				0.997935950756073
			],
			"min":[
				-0.979728102684021,
				-0.9797282814979553,
				-0.997935950756073
			],
			"type":"VEC3"
		},
		{
			"bufferView":9,
			"componentType":5126,
			"count":201538,
			"type":"VEC3"
		},
		{
			"bufferView":10,
			"componentType":5126,
			"count":201538,
			"type":"VEC2"
		},
		{
			"bufferView":11,
			"componentType":5125,
			"count":1198080,
			"type":"SCALAR"
		},
		{
			"bufferView":12,
			"componentType":5126,
			"count":4,
			"max":[
				0.45876288414001465,
				0,
				0.5
			],
			"min":[
				-0.45876288414001465,
				0,
				-0.5
			],
			"type":"VEC3"
		},
		{
			"bufferView":13,
			"componentType":5126,
			"count":4,
			"type":"VEC3"
		},
		{
			"bufferView":14,
			"componentType":5126,
			"count":4,
			"type":"VEC2"
		},
		{
			"bufferView":15,
			"componentType":5123,
			"count":6,
			"type":"SCALAR"
		}
	],
	"bufferViews":[
		{
			"buffer":0,
			"byteLength":6144,
			"byteOffset":0,
			"target":34962
		},
		{
			"buffer":0,
			"byteLength":6144,
			"byteOffset":6144,
			"target":34962
		},
		{
			"buffer":0,
			"byteLength":4096,
			"byteOffset":12288,
			"target":34962
		},
		{
			"buffer":0,
			"byteLength":1536,
			"byteOffset":16384,
			"target":34963
		},
		{
			"buffer":0,
			"byteLength":26928,
			"byteOffset":17920,
			"target":34962
		},
		{
			"buffer":0,
			"byteLength":26928,
			"byteOffset":44848,
			"target":34962
		},
		{
			"buffer":0,
			"byteLength":17952,
			"byteOffset":71776,
			"target":34962
		},
		{
			"buffer":0,
			"byteLength":26928,
			"byteOffset":89728,
			"target":34963
		},
		{
			"buffer":0,
			"byteLength":2418456,
			"byteOffset":116656,
			"target":34962
		},
		{
			"buffer":0,
			"byteLength":2418456,
			"byteOffset":2535112,
			"target":34962
		},
		{
			"buffer":0,
			"byteLength":1612304,
			"byteOffset":4953568,
			"target":34962
		},
		{
			"buffer":0,
			"byteLength":4792320,
			"byteOffset":6565872,
			"target":34963
		},
		{
			"buffer":0,
			"byteLength":48,
			"byteOffset":11358192,
			"target":34962
		},
		{
			"buffer":0,
			"byteLength":48,
			"byteOffset":11358240,
			"target":34962
		},
		{
			"buffer":0,
			"byteLength":32,
			"byteOffset":11358288,
			"target":34962
		},
		{
			"buffer":0,
			"byteLength":12,
			"byteOffset":11358320,
			"target":34963
		}
	],
	"samplers":[
		{
			"magFilter":9729,
			"minFilter":9987
		},
		{
			"magFilter":9729,
			"minFilter":9987,
			"wrapS":33071,
			"wrapT":33071
		}
	],
	"buffers":[
		{
			"byteLength":11358332,
			"uri":"earth.bin"
		}
	]
}
