<svg width="1179" height="2184" viewBox="0 0 1179 2184" fill="none" xmlns="http://www.w3.org/2000/svg">
<g filter="url(#filter0_f_2004_2)">
<ellipse cx="1115" cy="1092" rx="865" ry="842" fill="url(#paint0_linear_2004_2)"/>
</g>
<path opacity="0.303804" fill-rule="evenodd" clip-rule="evenodd" d="M929.091 114.045C929.091 117.384 926.384 120.091 923.045 120.091C919.707 120.091 917 117.384 917 114.045C917 110.707 919.707 108 923.045 108C926.384 108 929.091 110.707 929.091 114.045ZM965.363 114.045C965.363 117.384 962.657 120.091 959.318 120.091C955.979 120.091 953.272 117.384 953.272 114.045C953.272 110.707 955.979 108 959.318 108C962.657 108 965.363 110.707 965.363 114.045ZM995.591 120.091C998.93 120.091 1001.64 117.384 1001.64 114.045C1001.64 110.707 998.93 108 995.591 108C992.253 108 989.546 110.707 989.546 114.045C989.546 117.384 992.253 120.091 995.591 120.091ZM1037.91 114.045C1037.91 117.384 1035.2 120.091 1031.86 120.091C1028.52 120.091 1025.82 117.384 1025.82 114.045C1025.82 110.707 1028.52 108 1031.86 108C1035.2 108 1037.91 110.707 1037.91 114.045ZM1068.14 120.091C1071.48 120.091 1074.18 117.384 1074.18 114.045C1074.18 110.707 1071.48 108 1068.14 108C1064.8 108 1062.09 110.707 1062.09 114.045C1062.09 117.384 1064.8 120.091 1068.14 120.091ZM1110.45 114.045C1110.45 117.384 1107.75 120.091 1104.41 120.091C1101.07 120.091 1098.36 117.384 1098.36 114.045C1098.36 110.707 1101.07 108 1104.41 108C1107.75 108 1110.45 110.707 1110.45 114.045ZM1140.68 120.091C1144.02 120.091 1146.73 117.384 1146.73 114.045C1146.73 110.707 1144.02 108 1140.68 108C1137.34 108 1134.64 110.707 1134.64 114.045C1134.64 117.384 1137.34 120.091 1140.68 120.091ZM1183 114.045C1183 117.384 1180.29 120.091 1176.95 120.091C1173.62 120.091 1170.91 117.384 1170.91 114.045C1170.91 110.707 1173.62 108 1176.95 108C1180.29 108 1183 110.707 1183 114.045ZM923.045 156.364C926.384 156.364 929.091 153.658 929.091 150.319C929.091 146.98 926.384 144.273 923.045 144.273C919.707 144.273 917 146.98 917 150.319C917 153.658 919.707 156.364 923.045 156.364ZM965.363 150.319C965.363 153.658 962.657 156.364 959.318 156.364C955.979 156.364 953.272 153.658 953.272 150.319C953.272 146.98 955.979 144.273 959.318 144.273C962.657 144.273 965.363 146.98 965.363 150.319ZM995.591 156.364C998.93 156.364 1001.64 153.658 1001.64 150.319C1001.64 146.98 998.93 144.273 995.591 144.273C992.253 144.273 989.546 146.98 989.546 150.319C989.546 153.658 992.253 156.364 995.591 156.364ZM1037.91 150.319C1037.91 153.658 1035.2 156.364 1031.86 156.364C1028.53 156.364 1025.82 153.658 1025.82 150.319C1025.82 146.98 1028.53 144.273 1031.86 144.273C1035.2 144.273 1037.91 146.98 1037.91 150.319ZM1068.14 156.364C1071.48 156.364 1074.18 153.658 1074.18 150.319C1074.18 146.98 1071.48 144.273 1068.14 144.273C1064.8 144.273 1062.09 146.98 1062.09 150.319C1062.09 153.658 1064.8 156.364 1068.14 156.364ZM1110.45 150.319C1110.45 153.658 1107.75 156.364 1104.41 156.364C1101.07 156.364 1098.36 153.658 1098.36 150.319C1098.36 146.98 1101.07 144.273 1104.41 144.273C1107.75 144.273 1110.45 146.98 1110.45 150.319ZM1140.68 156.364C1144.02 156.364 1146.73 153.658 1146.73 150.319C1146.73 146.98 1144.02 144.273 1140.68 144.273C1137.34 144.273 1134.64 146.98 1134.64 150.319C1134.64 153.658 1137.34 156.364 1140.68 156.364ZM1183 150.319C1183 153.658 1180.29 156.364 1176.95 156.364C1173.62 156.364 1170.91 153.658 1170.91 150.319C1170.91 146.98 1173.62 144.273 1176.95 144.273C1180.29 144.273 1183 146.98 1183 150.319ZM923.045 192.636C926.384 192.636 929.091 189.929 929.091 186.59C929.091 183.252 926.384 180.545 923.045 180.545C919.707 180.545 917 183.252 917 186.59C917 189.929 919.707 192.636 923.045 192.636ZM965.363 186.59C965.363 189.929 962.657 192.636 959.318 192.636C955.979 192.636 953.272 189.929 953.272 186.59C953.272 183.252 955.979 180.545 959.318 180.545C962.657 180.545 965.363 183.252 965.363 186.59ZM995.591 192.636C998.93 192.636 1001.64 189.929 1001.64 186.59C1001.64 183.252 998.93 180.545 995.591 180.545C992.253 180.545 989.546 183.252 989.546 186.59C989.546 189.929 992.253 192.636 995.591 192.636ZM1037.91 186.59C1037.91 189.929 1035.2 192.636 1031.86 192.636C1028.53 192.636 1025.82 189.929 1025.82 186.59C1025.82 183.252 1028.53 180.545 1031.86 180.545C1035.2 180.545 1037.91 183.252 1037.91 186.59ZM1068.14 192.636C1071.48 192.636 1074.18 189.929 1074.18 186.59C1074.18 183.252 1071.48 180.545 1068.14 180.545C1064.8 180.545 1062.09 183.252 1062.09 186.59C1062.09 189.929 1064.8 192.636 1068.14 192.636ZM1110.45 186.59C1110.45 189.929 1107.75 192.636 1104.41 192.636C1101.07 192.636 1098.36 189.929 1098.36 186.59C1098.36 183.252 1101.07 180.545 1104.41 180.545C1107.75 180.545 1110.45 183.252 1110.45 186.59ZM1140.68 192.636C1144.02 192.636 1146.73 189.929 1146.73 186.59C1146.73 183.252 1144.02 180.545 1140.68 180.545C1137.34 180.545 1134.64 183.252 1134.64 186.59C1134.64 189.929 1137.34 192.636 1140.68 192.636ZM1183 186.59C1183 189.929 1180.29 192.636 1176.95 192.636C1173.62 192.636 1170.91 189.929 1170.91 186.59C1170.91 183.252 1173.62 180.545 1176.95 180.545C1180.29 180.545 1183 183.252 1183 186.59ZM923.045 228.909C926.384 228.909 929.091 226.202 929.091 222.864C929.091 219.525 926.384 216.818 923.045 216.818C919.707 216.818 917 219.525 917 222.864C917 226.202 919.707 228.909 923.045 228.909ZM965.363 222.864C965.363 226.203 962.657 228.909 959.318 228.909C955.979 228.909 953.272 226.203 953.272 222.864C953.272 219.525 955.979 216.818 959.318 216.818C962.657 216.818 965.363 219.525 965.363 222.864ZM995.591 228.909C998.93 228.909 1001.64 226.203 1001.64 222.864C1001.64 219.525 998.93 216.818 995.591 216.818C992.253 216.818 989.546 219.525 989.546 222.864C989.546 226.203 992.253 228.909 995.591 228.909ZM1037.91 222.864C1037.91 226.202 1035.2 228.909 1031.86 228.909C1028.52 228.909 1025.82 226.202 1025.82 222.864C1025.82 219.525 1028.52 216.818 1031.86 216.818C1035.2 216.818 1037.91 219.525 1037.91 222.864ZM1068.14 228.909C1071.48 228.909 1074.18 226.202 1074.18 222.864C1074.18 219.525 1071.48 216.818 1068.14 216.818C1064.8 216.818 1062.09 219.525 1062.09 222.864C1062.09 226.202 1064.8 228.909 1068.14 228.909ZM1110.45 222.864C1110.45 226.203 1107.75 228.909 1104.41 228.909C1101.07 228.909 1098.36 226.203 1098.36 222.864C1098.36 219.525 1101.07 216.818 1104.41 216.818C1107.75 216.818 1110.45 219.525 1110.45 222.864ZM1140.68 228.909C1144.02 228.909 1146.73 226.203 1146.73 222.864C1146.73 219.525 1144.02 216.818 1140.68 216.818C1137.34 216.818 1134.64 219.525 1134.64 222.864C1134.64 226.203 1137.34 228.909 1140.68 228.909ZM1183 222.864C1183 226.202 1180.29 228.909 1176.95 228.909C1173.62 228.909 1170.91 226.202 1170.91 222.864C1170.91 219.525 1173.62 216.818 1176.95 216.818C1180.29 216.818 1183 219.525 1183 222.864ZM923.045 265.183C926.384 265.183 929.091 262.476 929.091 259.137C929.091 255.798 926.384 253.092 923.045 253.092C919.707 253.092 917 255.798 917 259.137C917 262.476 919.707 265.183 923.045 265.183ZM965.363 259.137C965.363 262.476 962.657 265.183 959.318 265.183C955.979 265.183 953.272 262.476 953.272 259.137C953.272 255.798 955.979 253.092 959.318 253.092C962.657 253.092 965.363 255.798 965.363 259.137ZM995.591 265.183C998.93 265.183 1001.64 262.476 1001.64 259.137C1001.64 255.798 998.93 253.092 995.591 253.092C992.253 253.092 989.546 255.798 989.546 259.137C989.546 262.476 992.253 265.183 995.591 265.183ZM1037.91 259.137C1037.91 262.476 1035.2 265.183 1031.86 265.183C1028.53 265.183 1025.82 262.476 1025.82 259.137C1025.82 255.798 1028.53 253.092 1031.86 253.092C1035.2 253.092 1037.91 255.798 1037.91 259.137ZM1068.14 265.183C1071.48 265.183 1074.18 262.476 1074.18 259.137C1074.18 255.798 1071.48 253.092 1068.14 253.092C1064.8 253.092 1062.09 255.798 1062.09 259.137C1062.09 262.476 1064.8 265.183 1068.14 265.183ZM1110.45 259.137C1110.45 262.476 1107.75 265.183 1104.41 265.183C1101.07 265.183 1098.36 262.476 1098.36 259.137C1098.36 255.798 1101.07 253.092 1104.41 253.092C1107.75 253.092 1110.45 255.798 1110.45 259.137ZM1140.68 265.183C1144.02 265.183 1146.73 262.476 1146.73 259.137C1146.73 255.798 1144.02 253.092 1140.68 253.092C1137.34 253.092 1134.64 255.798 1134.64 259.137C1134.64 262.476 1137.34 265.183 1140.68 265.183ZM1183 259.137C1183 262.476 1180.29 265.183 1176.95 265.183C1173.62 265.183 1170.91 262.476 1170.91 259.137C1170.91 255.798 1173.62 253.092 1176.95 253.092C1180.29 253.092 1183 255.798 1183 259.137ZM923.045 301.454C926.384 301.454 929.091 298.748 929.091 295.409C929.091 292.07 926.384 289.363 923.045 289.363C919.707 289.363 917 292.07 917 295.409C917 298.748 919.707 301.454 923.045 301.454ZM965.363 295.409C965.363 298.748 962.657 301.454 959.318 301.454C955.979 301.454 953.272 298.748 953.272 295.409C953.272 292.07 955.979 289.363 959.318 289.363C962.657 289.363 965.363 292.07 965.363 295.409ZM995.591 301.454C998.93 301.454 1001.64 298.748 1001.64 295.409C1001.64 292.07 998.93 289.363 995.591 289.363C992.253 289.363 989.546 292.07 989.546 295.409C989.546 298.748 992.253 301.454 995.591 301.454ZM1037.91 295.409C1037.91 298.748 1035.2 301.454 1031.86 301.454C1028.53 301.454 1025.82 298.748 1025.82 295.409C1025.82 292.07 1028.53 289.363 1031.86 289.363C1035.2 289.363 1037.91 292.07 1037.91 295.409ZM1068.14 301.454C1071.48 301.454 1074.18 298.748 1074.18 295.409C1074.18 292.07 1071.48 289.363 1068.14 289.363C1064.8 289.363 1062.09 292.07 1062.09 295.409C1062.09 298.748 1064.8 301.454 1068.14 301.454ZM1110.45 295.409C1110.45 298.748 1107.75 301.454 1104.41 301.454C1101.07 301.454 1098.36 298.748 1098.36 295.409C1098.36 292.07 1101.07 289.363 1104.41 289.363C1107.75 289.363 1110.45 292.07 1110.45 295.409ZM1140.68 301.454C1144.02 301.454 1146.73 298.748 1146.73 295.409C1146.73 292.07 1144.02 289.363 1140.68 289.363C1137.34 289.363 1134.64 292.07 1134.64 295.409C1134.64 298.748 1137.34 301.454 1140.68 301.454ZM1183 295.409C1183 298.748 1180.29 301.454 1176.95 301.454C1173.62 301.454 1170.91 298.748 1170.91 295.409C1170.91 292.07 1173.62 289.363 1176.95 289.363C1180.29 289.363 1183 292.07 1183 295.409ZM923.045 337.728C926.384 337.728 929.091 335.021 929.091 331.682C929.091 328.343 926.384 325.637 923.045 325.637C919.707 325.637 917 328.343 917 331.682C917 335.021 919.707 337.728 923.045 337.728ZM965.363 331.682C965.363 335.021 962.657 337.728 959.318 337.728C955.979 337.728 953.272 335.021 953.272 331.682C953.272 328.343 955.979 325.637 959.318 325.637C962.657 325.637 965.363 328.343 965.363 331.682ZM995.591 337.728C998.93 337.728 1001.64 335.021 1001.64 331.682C1001.64 328.343 998.93 325.637 995.591 325.637C992.253 325.637 989.546 328.343 989.546 331.682C989.546 335.021 992.253 337.728 995.591 337.728ZM1037.91 331.682C1037.91 335.021 1035.2 337.728 1031.86 337.728C1028.53 337.728 1025.82 335.021 1025.82 331.682C1025.82 328.343 1028.53 325.637 1031.86 325.637C1035.2 325.637 1037.91 328.343 1037.91 331.682ZM1068.14 337.728C1071.48 337.728 1074.18 335.021 1074.18 331.682C1074.18 328.343 1071.48 325.637 1068.14 325.637C1064.8 325.637 1062.09 328.343 1062.09 331.682C1062.09 335.021 1064.8 337.728 1068.14 337.728ZM1110.45 331.682C1110.45 335.021 1107.75 337.728 1104.41 337.728C1101.07 337.728 1098.36 335.021 1098.36 331.682C1098.36 328.343 1101.07 325.637 1104.41 325.637C1107.75 325.637 1110.45 328.343 1110.45 331.682ZM1140.68 337.728C1144.02 337.728 1146.73 335.021 1146.73 331.682C1146.73 328.343 1144.02 325.637 1140.68 325.637C1137.34 325.637 1134.64 328.343 1134.64 331.682C1134.64 335.021 1137.34 337.728 1140.68 337.728ZM1183 331.682C1183 335.021 1180.29 337.728 1176.95 337.728C1173.62 337.728 1170.91 335.021 1170.91 331.682C1170.91 328.343 1173.62 325.637 1176.95 325.637C1180.29 325.637 1183 328.343 1183 331.682ZM923.045 373.999C926.384 373.999 929.091 371.292 929.091 367.954C929.091 364.615 926.384 361.908 923.045 361.908C919.707 361.908 917 364.615 917 367.954C917 371.292 919.707 373.999 923.045 373.999ZM965.363 367.954C965.363 371.292 962.657 373.999 959.318 373.999C955.979 373.999 953.272 371.292 953.272 367.954C953.272 364.615 955.979 361.908 959.318 361.908C962.657 361.908 965.363 364.615 965.363 367.954ZM995.591 373.999C998.93 373.999 1001.64 371.292 1001.64 367.954C1001.64 364.615 998.93 361.908 995.591 361.908C992.253 361.908 989.546 364.615 989.546 367.954C989.546 371.292 992.253 373.999 995.591 373.999ZM1037.91 367.954C1037.91 371.292 1035.2 373.999 1031.86 373.999C1028.53 373.999 1025.82 371.292 1025.82 367.954C1025.82 364.615 1028.53 361.908 1031.86 361.908C1035.2 361.908 1037.91 364.615 1037.91 367.954ZM1068.14 373.999C1071.48 373.999 1074.18 371.292 1074.18 367.954C1074.18 364.615 1071.48 361.908 1068.14 361.908C1064.8 361.908 1062.09 364.615 1062.09 367.954C1062.09 371.292 1064.8 373.999 1068.14 373.999ZM1110.45 367.954C1110.45 371.292 1107.75 373.999 1104.41 373.999C1101.07 373.999 1098.36 371.292 1098.36 367.954C1098.36 364.615 1101.07 361.908 1104.41 361.908C1107.75 361.908 1110.45 364.615 1110.45 367.954ZM1140.68 373.999C1144.02 373.999 1146.73 371.292 1146.73 367.954C1146.73 364.615 1144.02 361.908 1140.68 361.908C1137.34 361.908 1134.64 364.615 1134.64 367.954C1134.64 371.292 1137.34 373.999 1140.68 373.999ZM1183 367.954C1183 371.292 1180.29 373.999 1176.95 373.999C1173.62 373.999 1170.91 371.292 1170.91 367.954C1170.91 364.615 1173.62 361.908 1176.95 361.908C1180.29 361.908 1183 364.615 1183 367.954Z" fill="white"/>
<defs>
<filter id="filter0_f_2004_2" x="0" y="0" width="2230" height="2184" filterUnits="userSpaceOnUse" color-interpolation-filters="sRGB">
<feFlood flood-opacity="0" result="BackgroundImageFix"/>
<feBlend mode="normal" in="SourceGraphic" in2="BackgroundImageFix" result="shape"/>
<feGaussianBlur stdDeviation="125" result="effect1_foregroundBlur_2004_2"/>
</filter>
<linearGradient id="paint0_linear_2004_2" x1="1115" y1="250" x2="1115" y2="1934" gradientUnits="userSpaceOnUse">
<stop stop-color="#CA5EFF"/>
<stop offset="1" stop-color="#004FDE"/>
</linearGradient>
</defs>
</svg>
