<svg width="100" height="100" viewBox="0 0 100 100" fill="none" xmlns="http://www.w3.org/2000/svg">
<path d="M73.5576 50.2456L67.7686 36.6807C67.7222 36.5719 67.6549 36.4733 67.5704 36.3906C67.4859 36.3079 67.3859 36.2426 67.2761 36.1985C67.1664 36.1544 67.049 36.1324 66.9308 36.1337C66.8125 36.135 66.6956 36.1596 66.5869 36.2061L60.6523 38.7388C60.4329 38.8327 60.2598 39.0098 60.1708 39.2313C60.0819 39.4527 60.0843 39.7003 60.1777 39.9199L60.2905 40.1841L50.2236 40.8906C50.077 40.8885 49.7936 40.8842 45.9057 42.4742C44.7932 42.2797 43.0082 42.0013 39.774 41.5189L39.8223 41.4058C39.9157 41.1862 39.9182 40.9385 39.8292 40.7171C39.7403 40.4957 39.5671 40.3185 39.3477 40.2246L33.4131 37.6919C33.1935 37.5983 32.9457 37.5956 32.7242 37.6845C32.5026 37.7734 32.3254 37.9466 32.2314 38.166L26.4424 51.7305C26.3489 51.9502 26.3464 52.1979 26.4353 52.4195C26.5243 52.641 26.6975 52.8182 26.917 52.9121L32.8516 55.4443C33.0307 55.521 33.2298 55.5372 33.4189 55.4905C33.608 55.4439 33.7768 55.3369 33.8996 55.1857L46.3955 63.4057C46.8619 63.7072 47.4055 63.8676 47.9609 63.8676C48.1721 63.8676 48.3827 63.8446 48.5889 63.7992C49.152 63.6786 49.6664 63.3928 50.0663 62.9784C50.4662 62.5641 50.7335 62.0399 50.8341 61.4728L51.7741 62.0766C52.3006 62.4162 52.9135 62.5979 53.54 62.6C54.0222 62.6083 54.4986 62.4948 54.9252 62.27C55.3518 62.0452 55.7148 61.7163 55.9805 61.3139C56.2029 60.9636 56.3422 60.567 56.3879 60.1545C56.7363 60.2866 57.1054 60.3557 57.4779 60.3588C57.9616 60.3652 58.4391 60.2495 58.8663 60.0225C59.2935 59.7955 59.6565 59.4645 59.9219 59.06C60.1929 58.63 60.34 58.1335 60.3472 57.6252C60.4389 57.6341 60.5304 57.6452 60.623 57.6452C60.8348 57.6447 61.046 57.6218 61.253 57.5769C61.9786 57.4219 62.6166 56.9934 63.0344 56.3803C63.4523 55.7672 63.6179 55.0167 63.4969 54.2847L65.8069 53.1106L65.9669 53.4851C66.0607 53.7047 66.2379 53.878 66.4595 53.967C66.681 54.056 66.9289 54.0534 67.1485 53.9597L73.0831 51.4275C73.3024 51.3335 73.4756 51.1564 73.5645 50.935C73.6535 50.7136 73.6509 50.4652 73.5576 50.2456ZM32.7305 53.4356L28.4512 51.6095L33.5342 39.7008L37.8135 41.527L32.7305 53.4356ZM61.5684 55.333C61.4084 55.5805 61.1569 55.7547 60.8689 55.8175C60.5809 55.8802 60.2798 55.8265 60.0313 55.668L58.9073 54.9464L49.3027 48.78C49.2033 48.7157 49.0921 48.6716 48.9756 48.6503C48.8591 48.6291 48.7395 48.631 48.6237 48.656C48.508 48.681 48.3983 48.7287 48.3009 48.7962C48.2036 48.8637 48.1206 48.9497 48.0566 49.0494C47.9926 49.1491 47.9489 49.2604 47.928 49.377C47.9071 49.4935 47.9094 49.6131 47.9348 49.7288C47.9602 49.8445 48.0082 49.954 48.0761 50.0511C48.1439 50.1482 48.2302 50.231 48.3301 50.2946L57.9346 56.4611C58.0801 56.5287 58.2095 56.6267 58.314 56.7485C58.4185 56.8702 58.4957 57.0129 58.5404 57.167C58.5851 57.3211 58.5964 57.483 58.5733 57.6418C58.5503 57.8006 58.4935 57.9526 58.4068 58.0876C58.3202 58.2226 58.2056 58.3375 58.0708 58.4245C57.936 58.5116 57.7841 58.5688 57.6254 58.5922C57.4667 58.6157 57.3048 58.6049 57.1506 58.5606C56.9964 58.5162 56.8534 58.4394 56.7314 58.3352L54.9224 57.1735L47.1279 52.1686C47.0286 52.1004 46.9165 52.0528 46.7985 52.0287C46.6804 52.0045 46.5586 52.0044 46.4405 52.0282C46.3224 52.052 46.2102 52.0993 46.1107 52.1673C46.0112 52.2353 45.9263 52.3225 45.8612 52.4239C45.796 52.5253 45.7519 52.6388 45.7314 52.7575C45.7109 52.8763 45.7145 52.998 45.7419 53.1153C45.7694 53.2327 45.8201 53.3433 45.8911 53.4407C45.9621 53.5381 46.052 53.6202 46.1553 53.6822L53.9492 58.6881C54.1015 58.7517 54.238 58.848 54.3491 58.97C54.4602 59.092 54.5432 59.2369 54.5923 59.3944C54.6414 59.552 54.6554 59.7184 54.6334 59.8819C54.6113 60.0455 54.5536 60.2022 54.4645 60.3411C54.3754 60.48 54.2569 60.5977 54.1174 60.6859C53.9779 60.774 53.8208 60.8306 53.6571 60.8516C53.4934 60.8726 53.3271 60.8574 53.1699 60.8072C53.0127 60.7571 52.8684 60.673 52.7471 60.5611L49.5453 58.5054L49.543 58.5035L44.9521 55.5563C44.8526 55.4925 44.7415 55.4488 44.6251 55.4279C44.5087 55.407 44.3894 55.4092 44.2738 55.4344C44.1583 55.4596 44.0489 55.5073 43.9518 55.5748C43.8547 55.6423 43.7719 55.7283 43.708 55.8278C43.6441 55.9273 43.6005 56.0385 43.5796 56.1548C43.5587 56.2712 43.5609 56.3906 43.5861 56.5061C43.6113 56.6216 43.659 56.7311 43.7265 56.8281C43.794 56.9252 43.88 57.0081 43.9795 57.0719L48.5744 60.0219C48.821 60.1823 48.9942 60.4337 49.0562 60.7213C49.1182 61.0089 49.0639 61.3093 48.9053 61.557C48.7459 61.8026 48.4965 61.9759 48.2107 62.0395C47.9249 62.1031 47.6255 62.0519 47.377 61.897L34.65 53.5242L39.0437 43.23C40.5571 43.4553 41.7647 43.6374 42.7431 43.788C42.0015 44.0995 41.2078 44.4342 40.3076 44.8165C39.5653 45.1212 38.9629 45.6913 38.6176 46.4156C38.4426 46.7707 38.3456 47.1591 38.3332 47.5548C38.3209 47.9504 38.3934 48.3442 38.5459 48.7095C38.6985 49.0747 38.9275 49.4031 39.2176 49.6725C39.5076 49.9419 39.852 50.146 40.2276 50.2711C40.5655 50.3901 40.9212 50.4507 41.2794 50.4503C41.7167 50.4494 42.1495 50.3618 42.5528 50.1925L50.6389 46.8139L61.2345 53.796C61.4817 53.9564 61.6555 54.2079 61.718 54.4958C61.7806 54.7837 61.7267 55.0846 61.5684 55.333ZM62.6906 52.673C62.5467 52.5273 62.3875 52.3974 62.2158 52.2857L51.2246 45.0444C51.0995 44.9642 50.9563 44.9169 50.8081 44.9067C50.6599 44.8965 50.5115 44.9238 50.3766 44.9861C50.3561 44.993 50.3348 44.9901 50.3145 44.9985L41.8594 48.5312C41.5325 48.6728 41.1646 48.688 40.8271 48.5737C40.6888 48.5325 40.5613 48.4611 40.454 48.3646C40.3467 48.2681 40.2621 48.149 40.2064 48.0158C40.1507 47.8827 40.1253 47.7388 40.132 47.5946C40.1387 47.4504 40.1773 47.3095 40.2451 47.1821C40.4023 46.8604 40.6735 46.6086 41.0059 46.4756C45.1074 44.7334 49.7725 42.8105 50.2646 42.6885L60.8535 41.9492C60.9116 41.9395 60.9686 41.9237 61.0235 41.9023L65.0984 51.45L62.6906 52.673ZM67.27 51.95L62.1865 40.041L66.4658 38.2148L71.5488 50.124L67.27 51.95Z" fill="black"/>
</svg>
