<svg width="63" height="79" viewBox="0 0 63 79" fill="none" xmlns="http://www.w3.org/2000/svg">
<path fill-rule="evenodd" clip-rule="evenodd" d="M0 0.875H27.0779L60.7388 34.1562L33.589 60.2724L0 26.9524V0.875ZM51.4178 34.0947L24.3694 7.34742H6.53984V24.2728L33.657 51.1786L51.4178 34.0947ZM21.4533 22.1008C19.5402 23.9939 16.4335 23.9939 14.5203 22.1008C12.604 20.2108 12.604 17.1397 14.5203 15.2465C16.4335 13.3533 19.5402 13.3533 21.4533 15.2465C23.3697 17.1364 23.3697 20.2076 21.4533 22.1008ZM62.1352 50.6317L57.4587 46.0719L33.8441 69.2917L0 35.9879V45.1561L33.7231 78.544L62.1352 50.6317Z" fill="black"/>
</svg>
