<svg width="100" height="100" viewBox="0 0 100 100" fill="none" xmlns="http://www.w3.org/2000/svg">
<path d="M58.4482 61.9C58.3022 61.9 58.1585 61.8645 58.0293 61.7965L50 57.5752L41.9707 61.7969C41.822 61.8751 41.6544 61.91 41.4869 61.8979C41.3194 61.8857 41.1586 61.827 41.0228 61.7282C40.8869 61.6295 40.7814 61.4946 40.7182 61.339C40.655 61.1834 40.6365 61.0132 40.665 60.8477L42.1982 51.9077L35.7031 45.5762C35.5828 45.459 35.4977 45.3106 35.4575 45.1476C35.4172 44.9846 35.4233 44.8135 35.4751 44.6538C35.5269 44.4941 35.6224 44.3521 35.7507 44.2438C35.879 44.1355 36.0351 44.0653 36.2012 44.041L45.1787 42.7363L49.1934 34.6021C49.2762 34.4618 49.3941 34.3455 49.5355 34.2647C49.677 34.1839 49.8371 34.1414 50 34.1414C50.1629 34.1414 50.323 34.1839 50.4645 34.2647C50.6059 34.3455 50.7238 34.4618 50.8066 34.6021L54.8213 42.7363L63.7988 44.041C63.9649 44.0653 64.121 44.1355 64.2493 44.2438C64.3776 44.3521 64.4731 44.4941 64.5249 44.6538C64.5767 44.8135 64.5828 44.9846 64.5425 45.1476C64.5023 45.3106 64.4172 45.459 64.2969 45.5762L57.8018 51.9077L59.335 60.8482C59.3571 60.9773 59.3507 61.1097 59.3164 61.2362C59.282 61.3626 59.2204 61.48 59.136 61.5801C59.0515 61.6803 58.9462 61.7608 58.8274 61.8161C58.7086 61.8713 58.5792 61.9 58.4482 61.9ZM50 55.6582C50.1459 55.6585 50.2896 55.694 50.4189 55.7617L57.2529 59.3545L55.9482 51.7451C55.9235 51.6012 55.9341 51.4535 55.9792 51.3147C56.0243 51.1759 56.1025 51.0501 56.207 50.9482L61.7354 45.56L54.0938 44.45C53.9495 44.4291 53.8125 44.3733 53.6946 44.2876C53.5766 44.2018 53.4814 44.0886 53.417 43.9578L50 37.0337L46.583 43.957C46.5186 44.0878 46.4234 44.201 46.3054 44.2868C46.1875 44.3725 46.0505 44.4283 45.9062 44.4492L38.2646 45.5592L43.793 50.9478C43.8975 51.0497 43.9757 51.1755 44.0208 51.3143C44.0659 51.4531 44.0765 51.6008 44.0518 51.7447L42.7471 59.3541L49.5811 55.7613C49.7104 55.6938 49.8541 55.6584 50 55.6582Z" fill="black"/>
<path d="M50 70.9C45.8664 70.9 41.8256 69.6742 38.3886 67.3777C34.9516 65.0812 32.2728 61.817 30.6909 57.9981C29.109 54.1791 28.6952 49.9768 29.5016 45.9226C30.308 41.8684 32.2986 38.1444 35.2215 35.2215C38.1444 32.2985 41.8684 30.308 45.9226 29.5016C49.9768 28.6951 54.1791 29.109 57.9981 30.6909C61.8171 32.2728 65.0812 34.9516 67.3777 38.3886C69.6742 41.8256 70.9 45.8664 70.9 50C70.8936 55.541 68.6896 60.8533 64.7715 64.7714C60.8533 68.6896 55.5411 70.8936 50 70.9ZM50 30.9C46.2224 30.9 42.5296 32.0202 39.3886 34.1189C36.2476 36.2177 33.7995 39.2007 32.3539 42.6907C30.9083 46.1808 30.53 50.0212 31.267 53.7262C32.004 57.4312 33.8231 60.8345 36.4943 63.5057C39.1654 66.1769 42.5687 67.996 46.2738 68.733C49.9788 69.47 53.8192 69.0917 57.3093 67.6461C60.7993 66.2004 63.7823 63.7524 65.8811 60.6114C67.9798 57.4704 69.1 53.7776 69.1 50C69.0944 44.9361 67.0803 40.0812 63.4995 36.5004C59.9188 32.9197 55.0639 30.9056 50 30.9Z" fill="black"/>
</svg>
