<svg width="48" height="47" viewBox="0 0 48 47" fill="none" xmlns="http://www.w3.org/2000/svg">
<path d="M24 29.375C27.3137 29.375 30 26.7447 30 23.5C30 20.2553 27.3137 17.625 24 17.625C20.6863 17.625 18 20.2553 18 23.5C18 26.7447 20.6863 29.375 24 29.375Z" stroke="black" stroke-width="2" stroke-linecap="round" stroke-linejoin="round"/>
<path d="M38.8 29.3752C38.5338 29.9658 38.4544 30.621 38.572 31.2563C38.6896 31.8916 38.9989 32.4778 39.46 32.9393L39.58 33.0568C39.9519 33.4206 40.2469 33.8525 40.4482 34.328C40.6495 34.8035 40.7531 35.3132 40.7531 35.8279C40.7531 36.3426 40.6495 36.8522 40.4482 37.3277C40.2469 37.8032 39.9519 38.2352 39.58 38.5989C39.2085 38.9631 38.7674 39.252 38.2818 39.4491C37.7962 39.6462 37.2757 39.7476 36.75 39.7476C36.2243 39.7476 35.7038 39.6462 35.2182 39.4491C34.7326 39.252 34.2915 38.9631 33.92 38.5989L33.8 38.4814C33.3286 38.0299 32.73 37.7271 32.0812 37.6119C31.4324 37.4967 30.7632 37.5745 30.16 37.8352C29.5685 38.0834 29.064 38.4956 28.7086 39.021C28.3533 39.5464 28.1626 40.1621 28.16 40.7922V41.1252C28.16 42.1639 27.7386 43.1601 26.9884 43.8947C26.2383 44.6292 25.2209 45.0418 24.16 45.0418C23.0991 45.0418 22.0817 44.6292 21.3316 43.8947C20.5814 43.1601 20.16 42.1639 20.16 41.1252V40.9489C20.1445 40.3007 19.9302 39.6721 19.545 39.1447C19.1598 38.6173 18.6215 38.2156 18 37.9918C17.3968 37.7311 16.7276 37.6534 16.0788 37.7686C15.43 37.8838 14.8314 38.1866 14.36 38.6381L14.24 38.7556C13.8685 39.1197 13.4274 39.4086 12.9418 39.6057C12.4562 39.8028 11.9357 39.9043 11.41 39.9043C10.8843 39.9043 10.3638 39.8028 9.87824 39.6057C9.39265 39.4086 8.95149 39.1197 8.58 38.7556C8.20809 38.3918 7.91306 37.9599 7.71176 37.4844C7.51046 37.0089 7.40685 36.4992 7.40685 35.9845C7.40685 35.4698 7.51046 34.9602 7.71176 34.4847C7.91306 34.0092 8.20809 33.5772 8.58 33.2135L8.7 33.096C9.16107 32.6345 9.47037 32.0483 9.58801 31.413C9.70565 30.7777 9.62623 30.1225 9.36 29.5318C9.10647 28.9526 8.68551 28.4586 8.14893 28.1107C7.61235 27.7627 6.98357 27.576 6.34 27.5735H6C4.93913 27.5735 3.92172 27.1608 3.17157 26.4263C2.42143 25.6918 2 24.6956 2 23.6568C2 22.6181 2.42143 21.6218 3.17157 20.8873C3.92172 20.1528 4.93913 19.7402 6 19.7402H6.18C6.84199 19.725 7.48401 19.5152 8.0226 19.138C8.56119 18.7608 8.97143 18.2337 9.2 17.6252C9.46623 17.0345 9.54565 16.3793 9.42801 15.744C9.31037 15.1087 9.00107 14.5225 8.54 14.061L8.42 13.9435C8.04809 13.5797 7.75306 13.1478 7.55176 12.6723C7.35046 12.1968 7.24685 11.6872 7.24685 11.1725C7.24685 10.6577 7.35046 10.1481 7.55176 9.6726C7.75306 9.19713 8.04809 8.76517 8.42 8.40141C8.79149 8.03725 9.23265 7.74837 9.71824 7.55126C10.2038 7.35416 10.7243 7.25271 11.25 7.25271C11.7757 7.25271 12.2962 7.35416 12.7818 7.55126C13.2674 7.74837 13.7085 8.03725 14.08 8.40141L14.2 8.51891C14.6714 8.97038 15.27 9.27323 15.9188 9.38842C16.5676 9.50361 17.2368 9.42585 17.84 9.16516H18C18.5915 8.91692 19.096 8.50473 19.4514 7.97932C19.8067 7.45392 19.9974 6.83824 20 6.20808V5.87516C20 4.8364 20.4214 3.84018 21.1716 3.10566C21.9217 2.37114 22.9391 1.9585 24 1.9585C25.0609 1.9585 26.0783 2.37114 26.8284 3.10566C27.5786 3.84018 28 4.8364 28 5.87516V6.05141C28.0026 6.68158 28.1933 7.29726 28.5486 7.82266C28.904 8.34806 29.4085 8.76025 30 9.0085C30.6032 9.26918 31.2724 9.34694 31.9212 9.23175C32.57 9.11657 33.1686 8.81371 33.64 8.36225L33.76 8.24475C34.1315 7.88059 34.5726 7.5917 35.0582 7.3946C35.5438 7.19749 36.0643 7.09604 36.59 7.09604C37.1157 7.09604 37.6362 7.19749 38.1218 7.3946C38.6074 7.5917 39.0485 7.88059 39.42 8.24475C39.7919 8.6085 40.0869 9.04046 40.2882 9.51594C40.4895 9.99141 40.5931 10.5011 40.5931 11.0158C40.5931 11.5305 40.4895 12.0402 40.2882 12.5156C40.0869 12.9911 39.7919 13.4231 39.42 13.7868L39.3 13.9043C38.8389 14.3659 38.5296 14.9521 38.412 15.5873C38.2944 16.2226 38.3738 16.8778 38.64 17.4685V17.6252C38.8935 18.2044 39.3145 18.6984 39.8511 19.0463C40.3877 19.3943 41.0164 19.581 41.66 19.5835H42C43.0609 19.5835 44.0783 19.9961 44.8284 20.7307C45.5786 21.4652 46 22.4614 46 23.5002C46 24.5389 45.5786 25.5351 44.8284 26.2697C44.0783 27.0042 43.0609 27.4168 42 27.4168H41.82C41.1764 27.4193 40.5477 27.6061 40.0111 27.954C39.4745 28.302 39.0535 28.7959 38.8 29.3752Z" stroke="black" stroke-width="2" stroke-linecap="round" stroke-linejoin="round"/>
</svg>
