<svg width="48" height="47" viewBox="0 0 48 47" fill="none" xmlns="http://www.w3.org/2000/svg">
<path d="M24 29.375C27.3137 29.375 30 26.7447 30 23.5C30 20.2553 27.3137 17.625 24 17.625C20.6863 17.625 18 20.2553 18 23.5C18 26.7447 20.6863 29.375 24 29.375Z" stroke="white" stroke-width="2" stroke-linecap="round" stroke-linejoin="round"/>
<path d="M38.8 29.3749C38.5338 29.9656 38.4544 30.6208 38.572 31.2561C38.6896 31.8913 38.9989 32.4775 39.46 32.9391L39.58 33.0566C39.9519 33.4203 40.2469 33.8523 40.4482 34.3278C40.6495 34.8033 40.7531 35.3129 40.7531 35.8276C40.7531 36.3423 40.6495 36.852 40.4482 37.3275C40.2469 37.803 39.9519 38.2349 39.58 38.5987C39.2085 38.9628 38.7674 39.2517 38.2818 39.4488C37.7962 39.6459 37.2757 39.7474 36.75 39.7474C36.2243 39.7474 35.7038 39.6459 35.2182 39.4488C34.7326 39.2517 34.2915 38.9628 33.92 38.5987L33.8 38.4812C33.3286 38.0297 32.73 37.7268 32.0812 37.6117C31.4324 37.4965 30.7632 37.5742 30.16 37.8349C29.5685 38.0832 29.064 38.4954 28.7086 39.0208C28.3533 39.5462 28.1626 40.1618 28.16 40.792V41.1249C28.16 42.1637 27.7386 43.1599 26.9884 43.8944C26.2383 44.6289 25.2209 45.0416 24.16 45.0416C23.0991 45.0416 22.0817 44.6289 21.3316 43.8944C20.5814 43.1599 20.16 42.1637 20.16 41.1249V40.9487C20.1445 40.3005 19.9302 39.6718 19.545 39.1445C19.1598 38.6171 18.6215 38.2154 18 37.9916C17.3968 37.7309 16.7276 37.6531 16.0788 37.7683C15.43 37.8835 14.8314 38.1864 14.36 38.6378L14.24 38.7553C13.8685 39.1195 13.4274 39.4084 12.9418 39.6055C12.4562 39.8026 11.9357 39.904 11.41 39.904C10.8843 39.904 10.3638 39.8026 9.87824 39.6055C9.39265 39.4084 8.95149 39.1195 8.58 38.7553C8.20809 38.3916 7.91306 37.9596 7.71176 37.4841C7.51046 37.0087 7.40685 36.499 7.40685 35.9843C7.40685 35.4696 7.51046 34.9599 7.71176 34.4844C7.91306 34.009 8.20809 33.577 8.58 33.2132L8.7 33.0957C9.16107 32.6342 9.47037 32.048 9.58801 31.4127C9.70565 30.7775 9.62623 30.1222 9.36 29.5316C9.10647 28.9524 8.68551 28.4584 8.14893 28.1104C7.61235 27.7625 6.98357 27.5758 6.34 27.5733H6C4.93913 27.5733 3.92172 27.1606 3.17157 26.4261C2.42143 25.6916 2 24.6953 2 23.6566C2 22.6178 2.42143 21.6216 3.17157 20.8871C3.92172 20.1526 4.93913 19.7399 6 19.7399H6.18C6.84199 19.7248 7.48401 19.5149 8.0226 19.1378C8.56119 18.7606 8.97143 18.2334 9.2 17.6249C9.46623 17.0343 9.54565 16.379 9.42801 15.7438C9.31037 15.1085 9.00107 14.5223 8.54 14.0608L8.42 13.9433C8.04809 13.5795 7.75306 13.1475 7.55176 12.6721C7.35046 12.1966 7.24685 11.6869 7.24685 11.1722C7.24685 10.6575 7.35046 10.1478 7.55176 9.67236C7.75306 9.19688 8.04809 8.76492 8.42 8.40117C8.79149 8.03701 9.23265 7.74812 9.71824 7.55102C10.2038 7.35391 10.7243 7.25246 11.25 7.25246C11.7757 7.25246 12.2962 7.35391 12.7818 7.55102C13.2674 7.74812 13.7085 8.03701 14.08 8.40117L14.2 8.51867C14.6714 8.97014 15.27 9.27299 15.9188 9.38818C16.5676 9.50336 17.2368 9.4256 17.84 9.16492H18C18.5915 8.91667 19.096 8.50448 19.4514 7.97908C19.8067 7.45368 19.9974 6.838 20 6.20784V5.87492C20 4.83615 20.4214 3.83993 21.1716 3.10542C21.9217 2.3709 22.9391 1.95825 24 1.95825C25.0609 1.95825 26.0783 2.3709 26.8284 3.10542C27.5786 3.83993 28 4.83615 28 5.87492V6.05117C28.0026 6.68133 28.1933 7.29701 28.5486 7.82241C28.904 8.34782 29.4085 8.76001 30 9.00825C30.6032 9.26894 31.2724 9.3467 31.9212 9.23151C32.57 9.11632 33.1686 8.81347 33.64 8.362L33.76 8.2445C34.1315 7.88034 34.5726 7.59145 35.0582 7.39435C35.5438 7.19725 36.0643 7.0958 36.59 7.0958C37.1157 7.0958 37.6362 7.19725 38.1218 7.39435C38.6074 7.59145 39.0485 7.88034 39.42 8.2445C39.7919 8.60825 40.0869 9.04022 40.2882 9.51569C40.4895 9.99117 40.5931 10.5008 40.5931 11.0155C40.5931 11.5303 40.4895 12.0399 40.2882 12.5154C40.0869 12.9909 39.7919 13.4228 39.42 13.7866L39.3 13.9041C38.8389 14.3656 38.5296 14.9518 38.412 15.5871C38.2944 16.2224 38.3738 16.8776 38.64 17.4683V17.6249C38.8935 18.2041 39.3145 18.6981 39.8511 19.0461C40.3877 19.394 41.0164 19.5807 41.66 19.5833H42C43.0609 19.5833 44.0783 19.9959 44.8284 20.7304C45.5786 21.4649 46 22.4612 46 23.4999C46 24.5387 45.5786 25.5349 44.8284 26.2694C44.0783 27.0039 43.0609 27.4166 42 27.4166H41.82C41.1764 27.4191 40.5477 27.6058 40.0111 27.9538C39.4745 28.3017 39.0535 28.7957 38.8 29.3749Z" stroke="white" stroke-width="2" stroke-linecap="round" stroke-linejoin="round"/>
</svg>
