<svg width="101" height="60" viewBox="0 0 101 60" fill="none" xmlns="http://www.w3.org/2000/svg">
<path fill-rule="evenodd" clip-rule="evenodd" d="M100.901 32.6544L86.3685 36.3892L85.4717 32.9436C83.6198 33.7233 78.8105 35.7646 77.605 36.4353C78.1264 37.6341 78.3809 38.9419 78.2515 40.2497C77.922 43.7246 75.3401 46.3192 72.1742 46.9647C71.1148 49.1947 69.1168 50.6827 66.8144 51.1648C65.7966 53.3109 63.8028 54.8953 61.4086 55.3983C60.053 58.1984 57.3584 59.6403 54.4261 59.6403C52.278 59.6403 50.2383 58.8732 48.7701 57.3894C44.9035 59.0828 40.8367 57.1882 39.4602 53.772C36.9742 53.4828 34.8428 51.8732 33.9043 49.5929C31.4058 49.2953 29.2576 47.6731 28.315 45.3887C23.3555 44.8102 20.6067 39.3527 23.3138 34.9305C22.3795 34.6957 17.4033 33.7274 16.0853 33.4759L15.3261 36.3892L0.793945 32.6544L8.85254 0.957031L23.5599 4.68761L22.8383 7.46249C24.0646 7.39123 25.854 7.18165 27.3723 6.61578C28.3988 6.23564 29.4102 5.76455 30.4289 5.29007C34.9032 3.20608 39.5175 1.05687 46.1632 6.26368L48.2112 3.94988C49.8588 2.0804 52.0111 0.957031 54.4804 0.957031C56.299 0.957031 58.2761 1.63189 60.3533 2.70915C60.8169 2.95241 61.264 3.18814 61.6966 3.41618L61.7017 3.41885L61.7082 3.42226L61.7096 3.42303C68.7218 7.11963 71.9001 8.79515 78.9523 7.84812L78.1348 4.6918L92.8421 0.957031L100.901 32.6544ZM94.8115 29.0297L89.2306 7.06538L84.2545 8.32707L89.9522 30.2788L94.8115 29.0297ZM11.7431 30.2788L6.88375 29.0297L12.4647 7.06538L17.4408 8.32707L11.7431 30.2788ZM27.1178 36.7429C26.0708 37.9878 26.2252 39.7651 27.4515 40.6915C28.6778 41.6178 30.5256 41.3579 31.5684 40.1046L34.1086 36.9735C35.1514 35.716 35.0054 33.9513 33.7749 33.0165C32.5402 32.0818 30.7008 32.3542 29.6622 33.6034L27.1178 36.7429ZM33.0243 44.8817C31.7897 43.9428 31.6187 42.2158 32.6656 40.9583L35.235 37.7978C36.2778 36.5403 38.1131 36.2762 39.3394 37.2026C40.5699 38.1331 40.7159 39.9104 39.6814 41.1553L37.1078 44.32C36.0651 45.5817 34.2631 45.8123 33.0243 44.8817ZM38.2553 45.1114C37.2084 46.3689 37.3669 48.142 38.5974 49.0725C39.8237 49.9947 41.6631 49.739 42.7059 48.4815L45.2419 45.3503C46.2889 44.097 46.1387 42.3281 44.9083 41.3934C43.6736 40.4628 41.8425 40.7353 40.7955 41.9886L38.2553 45.1114ZM50.8183 49.5263L48.2739 52.67C47.227 53.9359 45.3917 54.1916 44.1612 53.2652C42.9307 52.3347 42.7806 50.5616 43.8192 49.3125L46.3719 46.1646C47.423 44.9155 49.2625 44.6472 50.4888 45.5819C51.7234 46.5083 51.8736 48.2814 50.8183 49.5263ZM54.4268 54.7571C55.0483 54.7571 55.6573 54.5643 56.1578 54.1786C57.3466 53.2439 57.4842 51.5295 56.4373 50.3349L55.4362 49.4462C55.1734 50.4439 54.7146 51.387 54.0514 52.1708L52.5581 54.0193C53.1129 54.4679 53.7594 54.7571 54.4268 54.7571ZM72.3121 41.5322C71.1066 42.4627 69.3131 42.2364 68.2786 41.0543L60.17 34.0584C59.5026 33.48 58.6267 34.5069 59.3024 35.0728L67.2108 41.8968C68.2453 43.0915 68.116 44.8142 66.9272 45.7364C65.776 46.6502 63.9574 46.4951 62.8854 45.2586L56.6662 39.7759C55.9947 39.1932 55.1229 40.2034 55.7778 40.786L61.8551 46.1472C62.8937 47.3418 62.7352 49.0227 61.5423 49.9574C60.3744 50.8712 58.5891 50.7287 57.538 49.5131L55.661 47.828L55.6527 46.8849C55.2814 43.6154 52.687 41.2178 49.6087 40.8741C48.6744 38.5812 46.5346 36.9758 44.0403 36.6908C43.131 34.4483 41.012 32.7925 38.476 32.4991C36.8201 28.4123 31.6521 26.9075 27.8438 29.653C26.0711 29.0955 20.1189 27.7667 17.6913 27.2889L21.1784 13.8588C24.4444 13.7037 28.2443 13.3055 33.283 10.9037C36.8868 9.18091 38.6137 8.39288 41.9047 10.8492C39.7899 12.9744 37.6209 14.8522 35.3894 16.1642C33.3872 17.3379 32.5197 19.6726 33.1745 22.1122C33.9295 24.9122 36.745 27.7416 41.3499 27.7416C45.9548 27.7416 53.5463 23.4912 55.027 21.4457C61.1669 27.2763 67.1316 32.6961 72.3079 37.3573C73.7678 38.992 73.4967 40.61 72.3121 41.5322ZM60.2951 17.7249C63.1273 20.5752 71.0149 27.743 74.5061 30.8993C76.2371 29.9268 81.7555 27.4915 83.8411 26.6573L80.5918 14.1368C70.6122 15.2146 66.8832 13.2472 58.9193 9.04538C58.4584 8.80224 57.9834 8.55161 57.4921 8.29365C55.3523 7.19125 53.905 6.9649 52.9039 8.10922C48.7995 12.8039 44.4324 17.7878 39.5897 20.9483C41.9797 22.8681 48.0112 19.0285 50.4012 17.092C51.444 16.2494 53.0624 15.1303 55.1062 15.1303C57.4129 15.1303 59.0897 16.5177 60.2951 17.7249Z" fill="black"/>
</svg>
