<svg width="103" height="103" viewBox="0 0 103 103" fill="none" xmlns="http://www.w3.org/2000/svg">
<path d="M51.5 103C79.9427 103 103 79.9427 103 51.5C103 23.0573 79.9427 0 51.5 0C23.0573 0 0 23.0573 0 51.5C0 79.9427 23.0573 103 51.5 103Z" fill="#B28EFF" fill-opacity="0.502972"/>
<path d="M52 68.3334C62.1252 68.3334 70.3334 60.1253 70.3334 50.0001C70.3334 39.8749 62.1252 31.6667 52 31.6667C41.8748 31.6667 33.6667 39.8749 33.6667 50.0001C33.6667 60.1253 41.8748 68.3334 52 68.3334Z" stroke="black" stroke-width="2" stroke-linecap="round" stroke-linejoin="round"/>
<path d="M44.6667 53.6667C44.6667 53.6667 47.4167 57.3334 52 57.3334C56.5834 57.3334 59.3334 53.6667 59.3334 53.6667" stroke="black" stroke-width="2" stroke-linecap="round" stroke-linejoin="round"/>
<path d="M46.5 44.5H46.5183" stroke="black" stroke-width="2" stroke-linecap="round" stroke-linejoin="round"/>
<path d="M57.5 44.5H57.5183" stroke="black" stroke-width="2" stroke-linecap="round" stroke-linejoin="round"/>
</svg>
