<svg width="33" height="51" viewBox="0 0 33 51" fill="none" xmlns="http://www.w3.org/2000/svg">
<path d="M16.4583 31.9167C24.9957 31.9167 31.9167 24.9957 31.9167 16.4583C31.9167 7.92093 24.9957 1 16.4583 1C7.92093 1 1 7.92093 1 16.4583C1 24.9957 7.92093 31.9167 16.4583 31.9167Z" stroke="black" stroke-width="2" stroke-linecap="round" stroke-linejoin="round"/>
<path d="M8.08871 29.4653L5.41663 49.5832L16.4583 42.9582L27.5 49.5832L24.8279 29.4432" stroke="black" stroke-width="2" stroke-linecap="round" stroke-linejoin="round"/>
<path d="M12.93 12.0641V20.7914H11.8731V13.1721H11.822L9.69133 14.5868V13.513L11.8731 12.0641H12.93ZM18.3888 20.9107C17.8263 20.9107 17.3249 20.8141 16.8845 20.6209C16.447 20.4277 16.099 20.1593 15.8405 19.8155C15.5848 19.4689 15.4456 19.0669 15.4229 18.6096H16.4967C16.5195 18.8908 16.616 19.1337 16.7865 19.3383C16.957 19.54 17.18 19.6962 17.4555 19.807C17.7311 19.9178 18.0365 19.9732 18.3717 19.9732C18.7467 19.9732 19.0791 19.9079 19.3689 19.7772C19.6587 19.6465 19.8859 19.4647 20.0507 19.2317C20.2155 18.9988 20.2979 18.7289 20.2979 18.4221C20.2979 18.101 20.2183 17.8184 20.0592 17.5741C19.9001 17.3269 19.6672 17.1337 19.3604 16.9945C19.0535 16.8553 18.6785 16.7857 18.2354 16.7857H17.5365V15.8482H18.2354C18.582 15.8482 18.8859 15.7857 19.1473 15.6607C19.4115 15.5357 19.6175 15.3596 19.7652 15.1323C19.9158 14.905 19.991 14.638 19.991 14.3312C19.991 14.0357 19.9257 13.7786 19.795 13.5598C19.6643 13.3411 19.4797 13.1706 19.241 13.0485C19.0052 12.9263 18.7268 12.8652 18.4058 12.8652C18.1047 12.8652 17.8206 12.9206 17.5535 13.0314C17.2893 13.1394 17.0734 13.2971 16.9058 13.5045C16.7382 13.709 16.6473 13.9562 16.6331 14.2459H15.6104C15.6274 13.7885 15.7652 13.388 16.0237 13.0442C16.2822 12.6976 16.6203 12.4277 17.0379 12.2346C17.4584 12.0414 17.92 11.9448 18.4229 11.9448C18.9626 11.9448 19.4257 12.0542 19.8121 12.2729C20.1984 12.4888 20.4953 12.7743 20.7027 13.1295C20.9101 13.4846 21.0138 13.8681 21.0138 14.28C21.0138 14.7715 20.8845 15.1905 20.626 15.5371C20.3703 15.8837 20.0223 16.1238 19.582 16.2573V16.3255C20.1331 16.4164 20.5635 16.6508 20.8731 17.0286C21.1828 17.4036 21.3376 17.8681 21.3376 18.4221C21.3376 18.8965 21.2084 19.3226 20.9499 19.7005C20.6942 20.0755 20.3447 20.3709 19.9016 20.5868C19.4584 20.8027 18.9541 20.9107 18.3888 20.9107Z" fill="black"/>
</svg>
